cf306b7bc30122effc6429e35364f640 *tests/data/fate/sub-pgs-remux.sup
49382 tests/data/fate/sub-pgs-remux.sup
#tb 0: 1/90000
#media_type 0: subtitle
#codec_id 0: hdmv_pgs_subtitle
0,       6072,       6072,        0,       30, 0x32b303ec
0,       6072,       6072,        0,       22, 0x27510416
0,       6072,       6072,        0,      160, 0xe2024133
0,       6072,       6072,        0,    22943, 0xc011fe0e
0,       6072,       6072,        0,     2969, 0x35604c6f
0,       6072,       6072,        0,        3, 0x01800080
0,      35426,      36102,        0,       30, 0x2db303ac
0,      35426,      35862,        0,       22, 0x27510416
0,      35426,      35426,        0,      160, 0xe2024133
0,      35426,      35862,        0,    22943, 0xc011fe0e
